<?xml version="1.0" encoding="iso-8859-1"?>
<!-- Generator: Adobe Illustrator 19.0.0, SVG Export Plug-In . SVG Version: 6.00 Build 0)  -->
<svg version="1.1" id="Capa_1" xmlns="http://www.w3.org/2000/svg" xmlns:xlink="http://www.w3.org/1999/xlink" x="0px" y="0px"
	 viewBox="0 0 511.035 511.035" style="enable-background:new 0 0 511.035 511.035;" xml:space="preserve">
<path style="fill:#E8EAE9;" d="M378.133,473.702l-297.6-39.467c-9.6-1.067-17.067-10.667-16-20.267l53.333-397.867
	c1.067-9.6,10.667-17.067,20.267-16L436.8,39.568c9.6,1.067,17.067,10.667,16,20.267l-53.333,397.867
	C397.333,468.368,387.733,474.768,378.133,473.702z"/>
<path style="fill:#F3F3F3;" d="M377.067,511.035h-300.8c-9.6,0-18.133-8.533-18.133-18.133V90.768c0-9.6,8.533-18.133,18.133-18.133
	H376c9.6,0,18.133,8.533,18.133,18.133v402.133C395.2,502.502,386.667,511.035,377.067,511.035z"/>
<g>
	<path style="fill:#F3705A;" d="M155.2,266.768c0,43.733,71.467,88.533,71.467,88.533s71.467-44.8,71.467-88.533
		c0-21.333-17.067-38.4-38.4-38.4c-13.867,0-26.667,7.467-33.067,19.2c-6.4-11.733-19.2-19.2-33.067-19.2
		C172.267,228.368,155.2,245.435,155.2,266.768z"/>
	<path style="fill:#F3705A;" d="M104,138.768c0,23.467,38.4,48,38.4,48s38.4-24.533,38.4-48c0-11.733-9.6-20.267-20.267-20.267
		c-7.467,0-14.933,4.267-18.133,10.667c-3.2-6.4-10.667-10.667-18.133-10.667C113.6,118.502,104,127.035,104,138.768z"/>
	<path style="fill:#F3705A;" d="M271.467,417.168c0,23.467,38.4,48,38.4,48s38.4-24.533,38.4-48c0-11.733-9.6-20.267-20.267-20.267
		c-7.467,0-14.933,4.267-18.133,10.667c-3.2-6.4-10.667-10.667-18.133-10.667C281.067,396.902,271.467,406.502,271.467,417.168z"/>
</g>
<g>
</g>
<g>
</g>
<g>
</g>
<g>
</g>
<g>
</g>
<g>
</g>
<g>
</g>
<g>
</g>
<g>
</g>
<g>
</g>
<g>
</g>
<g>
</g>
<g>
</g>
<g>
</g>
<g>
</g>
</svg>
